<?xml version="1.0" encoding="UTF-8"?>
<svg id="Layer_1" data-name="Layer 1" xmlns="http://www.w3.org/2000/svg" viewBox="0 0 200 200">
  <defs>
    <style>
      .cls-1 {
        fill: #adff2f;
      }
    </style>
  </defs>
  <rect class="cls-1" width="200" height="200"/>
  <g>
    <path d="M56.28,92.23h28.92c6.03,0,11.17,1.03,15.42,3.1,4.25,2.06,7.51,5.12,9.79,9.17,2.27,4.05,3.41,9.04,3.41,14.99,0,4.87-.66,9.03-1.98,12.48-1.32,3.45-3.2,6.32-5.63,8.61-2.44,2.29-5.35,4.12-8.73,5.48l-5.51,3.28h-23.47l-.06-15.05h16.29c2.48,0,4.53-.55,6.16-1.64,1.63-1.09,2.85-2.64,3.65-4.65.81-2,1.21-4.34,1.21-7.03,0-2.85-.36-5.29-1.08-7.34-.72-2.04-1.86-3.6-3.41-4.68-1.55-1.07-3.56-1.61-6.04-1.61h-10.78v75.06h-18.15v-90.18ZM97.22,182.4l-16.54-40.2,19.01-.06,16.91,39.39v.87h-19.39Z"/>
    <path d="M164.54,158.68c0-1.61-.14-3.08-.43-4.4-.29-1.32-.9-2.54-1.83-3.65-.93-1.11-2.27-2.23-4.03-3.34-1.75-1.12-4.04-2.27-6.84-3.47-3.34-1.4-6.59-2.9-9.72-4.49-3.14-1.59-5.97-3.44-8.48-5.54-2.52-2.11-4.51-4.59-5.98-7.46-1.47-2.87-2.2-6.24-2.2-10.13s.69-7.25,2.08-10.34c1.38-3.1,3.34-5.75,5.88-7.96,2.54-2.21,5.54-3.91,9.01-5.11,3.47-1.2,7.31-1.8,11.52-1.8,5.78,0,10.79,1.2,15.02,3.59,4.23,2.4,7.51,5.68,9.85,9.85,2.33,4.17,3.5,8.96,3.5,14.37h-18.02c0-2.56-.36-4.81-1.08-6.75-.72-1.94-1.87-3.47-3.44-4.58-1.57-1.12-3.59-1.67-6.07-1.67-2.31,0-4.22.46-5.73,1.39-1.51.93-2.62,2.18-3.34,3.75-.72,1.57-1.08,3.34-1.08,5.33,0,1.49.36,2.81,1.08,3.96.72,1.16,1.72,2.21,3,3.16,1.28.95,2.8,1.86,4.55,2.72s3.69,1.71,5.79,2.54c4.09,1.61,7.7,3.38,10.84,5.3s5.76,4.07,7.87,6.44c2.11,2.38,3.69,5.05,4.77,8.02,1.07,2.97,1.61,6.36,1.61,10.16s-.65,7.17-1.95,10.25c-1.3,3.08-3.19,5.72-5.67,7.93-2.48,2.21-5.46,3.91-8.95,5.11-3.49,1.2-7.38,1.8-11.67,1.8s-8.11-.59-11.83-1.76-6.99-2.97-9.82-5.39c-2.83-2.42-5.05-5.49-6.66-9.23-1.61-3.74-2.42-8.17-2.42-13.29h18.15c0,2.73.27,5.05.81,6.97.54,1.92,1.36,3.45,2.48,4.58,1.12,1.14,2.49,1.97,4.12,2.51,1.63.54,3.5.8,5.6.8,2.39,0,4.3-.44,5.73-1.33,1.42-.89,2.45-2.11,3.07-3.65.62-1.55.93-3.27.93-5.17Z"/>
  </g>
</svg>